<svg
  xmlns="http://www.w3.org/2000/svg"
  xmlns:xlink="http://www.w3.org/1999/xlink">

  <symbol id="close" viewBox="0 0 32 32">
	<path d="M13 16L2 27l3 3 11-11 11 11 3-3-11-11L30 5l-3-3-11 11L5 2 2 5l11 11z" fill-rule="evenodd"/>
  </symbol>

  <symbol id="menu-rows" viewBox="0 0 32 32">
	<path d="M2 4h28v4H2V4zm0 10h28v4H2v-4zm0 10h28v4H2v-4z" fill-rule="evenodd"/>
  </symbol>

  <symbol id="reply" viewBox="0 0 32 32">
	<path d="M15 12h1.992C21.967 12 26 16.024 26 20.993V25c0-2.761-2.69-5-5.999-5H15v5l-9-9 9-9v5z" fill-rule="evenodd"/>
  </symbol>

  <symbol id="search" viewBox="0 0 32 32">
	<path d="M20.57 23.57A12.94 12.94 0 0 1 13 26C5.82 26 0 20.18 0 13S5.82 0 13 0s13 5.82 13 13c0 2.824-.9 5.438-2.43 7.57L32 29l-3 3-8.43-8.43zM13 23c5.523 0 10-4.477 10-10S18.523 3 13 3 3 7.477 3 13s4.477 10 10 10z" fill-rule="evenodd"/>
  </symbol>

  <symbol id="user" viewBox="0 0 32 32">
	<path d="M16 15c3.314 0 6-4.686 6-8s-1-7-6-7-6 3.686-6 7 2.686 8 6 8zM4 24.492c0-4.69 3.777-8.964 8-9.492l2.338 3.508c.918 1.376 2.405 1.378 3.324 0L20 15c4.418.552 8 4.812 8 9.492V32H4v-7.508z" fill-rule="evenodd"/>
  </symbol>
</svg>
